<svg width="31" height="30" xmlns="http://www.w3.org/2000/svg"><path d="M17.062 0c2.912.005 3.476.026 4.887.09 1.597.073 2.687.327 3.641.698a7.352 7.352 0 0 1 2.657 1.73 7.353 7.353 0 0 1 1.73 2.656c.371.955.625 2.045.697 3.642.073 1.6.09 2.11.09 6.184s-.017 4.585-.09 6.184c-.072 1.597-.326 2.687-.697 3.642a7.353 7.353 0 0 1-1.73 2.656 7.353 7.353 0 0 1-2.657 1.73c-.954.371-2.044.625-3.64.698-1.6.073-2.112.09-6.185.09-4.074 0-4.585-.017-6.185-.09-1.596-.073-2.687-.327-3.64-.697a7.353 7.353 0 0 1-2.658-1.73 7.352 7.352 0 0 1-1.73-2.657c-.37-.955-.624-2.045-.697-3.642-.064-1.411-.085-1.975-.09-4.887v-2.594c.005-2.912.026-3.476.09-4.887.073-1.597.326-2.687.697-3.642a7.352 7.352 0 0 1 1.73-2.656A7.352 7.352 0 0 1 5.94.788C6.893.417 7.984.163 9.58.09 10.992.026 11.556.005 14.467 0Zm-.607 2.703h-1.38c-3.377.002-3.886.02-5.372.087-1.462.067-2.256.311-2.785.517-.7.272-1.2.597-1.725 1.122a4.647 4.647 0 0 0-1.122 1.724c-.205.529-.45 1.323-.516 2.786-.068 1.486-.086 1.994-.087 5.37v1.381c.001 3.377.02 3.885.087 5.371.067 1.463.31 2.257.516 2.786.272.7.598 1.2 1.122 1.724.525.525 1.025.85 1.725 1.122.529.206 1.323.45 2.785.517 1.486.068 1.995.085 5.371.087h1.381c3.377-.002 3.885-.02 5.371-.087 1.462-.067 2.257-.311 2.785-.517.7-.272 1.2-.597 1.725-1.122a4.647 4.647 0 0 0 1.122-1.724c.205-.529.45-1.323.517-2.786.067-1.486.085-1.994.087-5.37V14.31c-.002-3.377-.02-3.885-.087-5.371-.067-1.463-.312-2.257-.517-2.786-.272-.7-.597-1.2-1.122-1.724a4.647 4.647 0 0 0-1.725-1.122c-.528-.206-1.323-.45-2.785-.517-1.486-.068-1.995-.085-5.37-.087Zm-.69 4.594a7.703 7.703 0 1 1 0 15.406 7.703 7.703 0 0 1 0-15.406Zm0 2.703a5 5 0 1 0 0 10 5 5 0 0 0 0-10Zm8.007-4.807a1.8 1.8 0 1 1 0 3.6 1.8 1.8 0 0 1 0-3.6Z" fill="#FFF" fill-rule="evenodd"/></svg>