<svg width="31" height="26" xmlns="http://www.w3.org/2000/svg"><path d="M30.47 3.572a12.136 12.136 0 0 1-3.533.981 6.235 6.235 0 0 0 2.706-3.45 12.208 12.208 0 0 1-3.91 1.512A6.102 6.102 0 0 0 21.24.647c-3.397 0-6.152 2.793-6.152 6.237 0 .489.052.963.158 1.42-5.115-.26-9.65-2.74-12.687-6.518a6.292 6.292 0 0 0-.833 3.138 6.257 6.257 0 0 0 2.738 5.191 6.097 6.097 0 0 1-2.789-.778v.077c0 3.023 2.122 5.544 4.94 6.115a6.157 6.157 0 0 1-2.782.11c.784 2.476 3.056 4.28 5.75 4.328A12.243 12.243 0 0 1 1.94 22.64c-.496 0-.988-.029-1.468-.086a17.282 17.282 0 0 0 9.434 2.8c11.323 0 17.512-9.502 17.512-17.745 0-.271-.005-.542-.016-.808a12.545 12.545 0 0 0 3.07-3.228" fill="#FFF" fill-rule="evenodd"/></svg>